<svg width="30" height="30" viewBox="0 0 30 30" fill="none" xmlns="http://www.w3.org/2000/svg">
<path d="M15.0013 29.9999C12.6053 29.9999 10.2065 29.8222 7.82643 29.4692C4.27621 28.941 1.49721 26.889 0.749933 24.2428C-0.249978 20.7104 -0.249978 17.1271 0.749933 13.5946C1.49987 10.9485 4.27621 8.89653 7.82643 8.36831C12.5866 7.65978 17.4134 7.65978 22.1736 8.36831C25.7238 8.89653 28.5028 10.9485 29.2501 13.5946C30.25 17.1271 30.25 20.7104 29.2501 24.2428C28.5001 26.889 25.7238 28.941 22.1736 29.4692C19.7935 29.8222 17.3974 29.9999 14.9987 29.9999H15.0013ZM15.0013 9.55172C12.6957 9.55172 10.3927 9.72187 8.10301 10.0622C5.2522 10.4863 3.04761 12.0481 2.48383 14.0416C1.56901 17.2795 1.56901 20.5605 2.48383 23.7959C3.04761 25.7894 5.25486 27.3512 8.10301 27.7753C12.6797 28.4559 17.3203 28.4559 21.897 27.7753C24.7478 27.3512 26.9524 25.7894 27.5162 23.7959C28.431 20.5605 28.431 17.2769 27.5162 14.0416C26.9524 12.0481 24.7451 10.4863 21.897 10.0622C19.61 9.72187 17.3043 9.55172 14.9987 9.55172H15.0013Z" fill="#333333" fill-opacity="0.53"/>
<path d="M20.5168 12.6728C20.4715 12.6728 20.4237 12.6703 20.3785 12.6627C19.8892 12.589 19.5541 12.1522 19.6285 11.6824C20.0088 9.34862 20.0088 6.98432 19.6285 4.6505C19.4158 3.34519 18.626 2.30398 17.666 2.05511C15.8975 1.598 14.1051 1.598 12.334 2.05511C11.3713 2.30398 10.5842 3.34773 10.3714 4.6505C9.99112 6.98178 9.99112 9.34862 10.3714 11.6824C10.4485 12.1497 10.1134 12.589 9.62146 12.6627C9.13214 12.7313 8.67208 12.4164 8.59496 11.9465C8.18542 9.4375 8.18542 6.89544 8.59496 4.38893C8.9194 2.39541 10.2039 0.831058 11.866 0.401879C13.9456 -0.13396 16.0544 -0.13396 18.134 0.401879C19.7961 0.831058 21.0779 2.39541 21.405 4.38893C21.8145 6.89544 21.8145 9.44004 21.405 11.9465C21.3359 12.3706 20.9529 12.6728 20.5194 12.6728H20.5168Z" fill="#333333" fill-opacity="0.53"/>
</svg>
