<svg width="30" height="30" viewBox="0 0 30 30" fill="none" xmlns="http://www.w3.org/2000/svg">
<path d="M15.001 29.9998C12.5914 29.9998 10.179 29.7662 7.78536 29.2991C4.2322 28.606 1.46538 25.9705 0.737688 22.5861C-0.245896 18.0262 -0.245896 13.4003 0.737688 8.84038C1.46538 5.45599 4.2322 2.82058 7.78536 2.12745C12.5727 1.19059 17.4293 1.19059 22.2166 2.12745C25.7698 2.82058 28.5366 5.45599 29.2643 8.84038C30.2452 13.4003 30.2452 18.0262 29.2643 22.5861C28.5366 25.9705 25.7698 28.606 22.2166 29.2991C19.823 29.7662 17.4133 29.9998 15.001 29.9998ZM15.001 3.13794C12.7113 3.13794 10.4216 3.36137 8.14787 3.80568C5.30107 4.36171 3.08336 6.4741 2.49961 9.18313C1.56667 13.5145 1.56667 17.9094 2.49961 22.2409C3.08336 24.9524 5.30107 27.0648 8.1452 27.6208C12.6926 28.5095 17.3067 28.5095 21.8541 27.6208C24.7009 27.0648 26.9159 24.9524 27.5024 22.2409C28.4353 17.9094 28.4353 13.5171 27.5024 9.18313C26.9186 6.47156 24.7009 4.36171 21.8541 3.80568C19.5804 3.36137 17.2907 3.13794 15.001 3.13794Z" fill="#333333" fill-opacity="0.53"/>
<path d="M28.3847 9.86621H1.61995C1.12416 9.86621 0.718994 9.48284 0.718994 9.00806C0.718994 8.53328 1.12149 8.1499 1.61995 8.1499H28.3847C28.8804 8.1499 29.2856 8.53328 29.2856 9.00806C29.2856 9.48284 28.8831 9.86621 28.3847 9.86621Z" fill="#333333" fill-opacity="0.53"/>
<path d="M21.3076 16.5131H20.468C20.0042 16.5131 19.6283 16.1551 19.6283 15.7133C19.6283 15.2716 20.0042 14.9136 20.468 14.9136H21.3076C21.7714 14.9136 22.1473 15.2716 22.1473 15.7133C22.1473 16.1551 21.7714 16.5131 21.3076 16.5131ZM15.4221 16.5131H14.5825C14.1186 16.5131 13.7428 16.1551 13.7428 15.7133C13.7428 15.2716 14.1186 14.9136 14.5825 14.9136H15.4221C15.8859 14.9136 16.2618 15.2716 16.2618 15.7133C16.2618 16.1551 15.8859 16.5131 15.4221 16.5131ZM9.5366 16.5131H8.69695C8.23315 16.5131 7.8573 16.1551 7.8573 15.7133C7.8573 15.2716 8.23315 14.9136 8.69695 14.9136H9.5366C10.0004 14.9136 10.3762 15.2716 10.3762 15.7133C10.3762 16.1551 10.0004 16.5131 9.5366 16.5131Z" fill="#333333" fill-opacity="0.53"/>
<path d="M21.3076 21.9135H20.468C20.0042 21.9135 19.6283 21.5555 19.6283 21.1137C19.6283 20.672 20.0042 20.314 20.468 20.314H21.3076C21.7714 20.314 22.1473 20.672 22.1473 21.1137C22.1473 21.5555 21.7714 21.9135 21.3076 21.9135ZM15.4221 21.9135H14.5825C14.1186 21.9135 13.7428 21.5555 13.7428 21.1137C13.7428 20.672 14.1186 20.314 14.5825 20.314H15.4221C15.8859 20.314 16.2618 20.672 16.2618 21.1137C16.2618 21.5555 15.8859 21.9135 15.4221 21.9135ZM9.5366 21.9135H8.69695C8.23315 21.9135 7.8573 21.5555 7.8573 21.1137C7.8573 20.672 8.23315 20.314 8.69695 20.314H9.5366C10.0004 20.314 10.3762 20.672 10.3762 21.1137C10.3762 21.5555 10.0004 21.9135 9.5366 21.9135Z" fill="#333333" fill-opacity="0.53"/>
<path d="M20.8865 5.20471C20.3907 5.20471 19.9855 4.82133 19.9855 4.34655V0.92407C19.9855 0.451829 20.388 0.065918 20.8865 0.065918C21.3849 0.065918 21.7874 0.44929 21.7874 0.92407V4.34655C21.7874 4.81879 21.3849 5.20471 20.8865 5.20471Z" fill="#333333" fill-opacity="0.53"/>
<path d="M9.11543 5.13879C8.61964 5.13879 8.21448 4.75541 8.21448 4.28063V0.85816C8.21448 0.385919 8.61698 0 9.11543 0C9.61389 0 10.0164 0.38338 10.0164 0.85816V4.28063C10.0164 4.75287 9.61389 5.13879 9.11543 5.13879Z" fill="#333333" fill-opacity="0.53"/>
</svg>
