<svg width="25" height="25" viewBox="0 0 25 25" fill="none" xmlns="http://www.w3.org/2000/svg">
<path d="M22.3663 0H2.63373C1.17905 0 0 1.18416 0 2.63373V22.3663C0 23.8209 1.18416 25 2.63373 25H22.3663C23.8209 25 25 23.8158 25 22.3663V2.63373C25 1.18416 23.8158 0 22.3663 0ZM23.7495 22.3663C23.7495 23.1268 23.1268 23.7495 22.3663 23.7495H2.63373C1.87321 23.7495 1.25051 23.1268 1.25051 22.3663V2.63373C1.25051 1.87321 1.87321 1.25051 2.63373 1.25051H22.3663C23.1268 1.25051 23.7495 1.87321 23.7495 2.63373V22.3663Z" fill="#2A62DD"/>
<path d="M16.3077 9.08023L10.7595 14.5927L8.69231 12.5153C8.44731 12.2703 8.0543 12.2703 7.8093 12.5153C7.5643 12.7603 7.5643 13.1533 7.8093 13.3983L10.3154 15.9198C10.4328 16.0372 10.591 16.1035 10.7595 16.1035C10.9228 16.1035 11.081 16.0372 11.1984 15.9198L17.1907 9.96325C17.4357 9.71825 17.4357 9.32523 17.1907 9.08023C16.9457 8.83523 16.5527 8.83523 16.3077 9.08023Z" fill="#2A62DD"/>
</svg>
