<svg width="26" height="26" viewBox="0 0 26 26" fill="none" xmlns="http://www.w3.org/2000/svg">
<path d="M2.80424 12.5138C2.763 17.9125 7.12171 22.3379 12.5204 22.3791C17.9192 22.42 22.3449 18.0614 22.3861 12.663C22.4273 7.26469 18.0688 2.83947 12.6699 2.79823C7.27127 2.757 2.84547 7.11531 2.80424 12.5138ZM21.6049 12.657C21.5669 17.6244 17.4946 21.6354 12.5263 21.5979C7.55833 21.5599 3.54752 17.4876 3.58546 12.5198C3.62341 7.55213 7.69596 3.54151 12.664 3.57946C17.6322 3.61741 21.6428 7.68957 21.6049 12.657ZM13.5773 9.76259L15.6633 12.221L8.68069 12.1676C8.46507 12.166 8.28874 12.3397 8.28709 12.5553C8.28544 12.7709 8.4591 12.9472 8.67472 12.9489L15.6573 13.0022L13.534 15.4288C13.392 15.5912 13.4085 15.8382 13.5708 15.9801C13.7332 16.122 13.9803 16.1057 14.1221 15.9433L17.028 12.622L14.1732 9.25717C14.0334 9.09262 13.7871 9.07238 13.6225 9.21214C13.458 9.35151 13.4378 9.59805 13.5773 9.76259Z" fill="white"/>
</svg>
