<svg width="25" height="25" viewBox="0 0 25 25" fill="none" xmlns="http://www.w3.org/2000/svg">
<path d="M12.5 24.8745L12.0714 24.2542C11.749 23.787 4.16667 12.7599 4.16667 8.33333C4.16667 3.73854 7.90521 0 12.5 0C17.0948 0 20.8333 3.73854 20.8333 8.33333C20.8333 12.7599 13.251 23.787 12.9287 24.2542L12.5 24.8745ZM12.5 1.04167C8.47917 1.04167 5.20834 4.3125 5.20834 8.33333C5.20834 11.8682 10.8776 20.6016 12.5 23.0281C14.1224 20.6016 19.7917 11.8682 19.7917 8.33333C19.7917 4.3125 16.5208 1.04167 12.5 1.04167Z" fill="black"/>
<path d="M12.5 11.9792C10.4901 11.9792 8.85417 10.3437 8.85417 8.33333C8.85417 6.32292 10.4901 4.6875 12.5 4.6875C14.5099 4.6875 16.1458 6.32292 16.1458 8.33333C16.1458 10.3437 14.5099 11.9792 12.5 11.9792ZM12.5 5.72917C11.0641 5.72917 9.89584 6.8974 9.89584 8.33333C9.89584 9.76927 11.0641 10.9375 12.5 10.9375C13.9359 10.9375 15.1042 9.76927 15.1042 8.33333C15.1042 6.8974 13.9359 5.72917 12.5 5.72917Z" fill="black"/>
</svg>
