<svg width="30" height="30" viewBox="0 0 30 30" fill="none" xmlns="http://www.w3.org/2000/svg">
<path d="M24.0438 30H19.3301C18.8073 30 18.38 29.6166 18.38 29.1419V22.3075C18.38 20.6243 16.865 19.2559 15.0014 19.2559C13.1378 19.2559 11.6228 20.6243 11.6228 22.3075V29.1419C11.6228 29.6141 11.1984 30 10.6727 30H5.95896C2.6731 30 0 27.5856 0 24.6178V12.7186C0 11.1928 0.719573 9.73555 1.97601 8.71496L11.0185 1.38046C13.2868 -0.460152 16.7104 -0.460152 18.9815 1.38046L28.024 8.71496C29.2804 9.73555 30 11.1928 30 12.7186V24.6178C30 27.5856 27.3269 30 24.041 30H24.0438ZM20.2773 28.2863H24.0438C26.2813 28.2863 28.1055 26.6412 28.1055 24.6204V12.7212C28.1055 11.6828 27.6136 10.6876 26.7591 9.99197L17.7167 2.65746C16.1679 1.40331 13.8377 1.40331 12.289 2.65746L3.24651 9.99197C2.38921 10.6876 1.90012 11.6803 1.90012 12.7212V24.6204C1.90012 26.6412 3.72154 28.2863 5.96177 28.2863H9.72829V22.3075C9.72829 19.6799 12.095 17.5423 15.0042 17.5423C17.9134 17.5423 20.2801 19.6799 20.2801 22.3075V28.2863H20.2773Z" fill="#8E8E8E"/>
</svg>
