<svg width="20" height="16" viewBox="0 0 20 16" fill="none" xmlns="http://www.w3.org/2000/svg">
<path d="M18.75 0.916687H1.25C0.918479 0.916687 0.600537 1.04838 0.366116 1.2828C0.131696 1.51722 0 1.83517 0 2.16669L0 13.8334C0 14.1649 0.131696 14.4828 0.366116 14.7172C0.600537 14.9517 0.918479 15.0834 1.25 15.0834H18.75C19.0815 15.0834 19.3995 14.9517 19.6339 14.7172C19.8683 14.4828 20 14.1649 20 13.8334V2.16669C20 1.83517 19.8683 1.51722 19.6339 1.2828C19.3995 1.04838 19.0815 0.916687 18.75 0.916687ZM18.4833 1.75002L10 8.30835L1.51667 1.75002H18.4833ZM0.833333 13.6625V2.27502L7.25417 7.23752L0.833333 13.6625ZM1.42083 14.25L7.91667 7.75419L9.74167 9.16669C9.81452 9.22277 9.90389 9.25319 9.99583 9.25319C10.0878 9.25319 10.1771 9.22277 10.25 9.16669L12.0833 7.75419L18.5792 14.25H1.42083ZM19.1667 13.6625L12.7458 7.23752L19.1667 2.27502V13.6625Z" fill="black"/>
</svg>
