<svg width="20" height="20" viewBox="0 0 20 20" fill="none" xmlns="http://www.w3.org/2000/svg">
<path fill-rule="evenodd" clip-rule="evenodd" d="M20 5.625V17.5C20 18.163 19.699 18.7989 19.1632 19.2678C18.6273 19.7366 17.9006 20 17.1429 20H15.7143V18.75H17.1429C17.5217 18.75 17.8851 18.6183 18.153 18.3839C18.4209 18.1495 18.5714 17.8315 18.5714 17.5V5.625H15.7143C15.146 5.625 14.6009 5.42746 14.1991 5.07583C13.7972 4.72419 13.5714 4.24728 13.5714 3.75V1.25H5.71429C5.33541 1.25 4.97204 1.3817 4.70413 1.61612C4.43622 1.85054 4.28571 2.16848 4.28571 2.5V13.75H2.85714V2.5C2.85714 1.83696 3.15816 1.20107 3.69398 0.732233C4.2298 0.263392 4.95652 0 5.71429 0L13.5714 0L20 5.625ZM2.28571 14.8125H0V19.8113H1.13V18.1338H2.27714C2.68714 18.1338 3.03571 18.0625 3.32286 17.9175C3.61286 17.7712 3.83429 17.5737 3.98429 17.325C4.13998 17.064 4.21902 16.7732 4.21429 16.4788C4.21429 16.1663 4.13857 15.8837 3.98857 15.6325C3.83937 15.3827 3.61127 15.1758 3.33143 15.0363C3.04571 14.8863 2.69857 14.8125 2.28571 14.8125ZM3.06429 16.4788C3.06944 16.6434 3.02771 16.8067 2.94286 16.9538C2.86673 17.0818 2.74824 17.1868 2.60286 17.255C2.43655 17.327 2.25261 17.3622 2.06714 17.3575H1.12571V15.6H2.06857C2.38 15.6 2.62429 15.675 2.8 15.8263C2.97571 15.9788 3.06429 16.1962 3.06429 16.4788ZM4.80286 14.8125V19.8113H6.88857C7.46143 19.8113 7.93714 19.7113 8.31429 19.515C8.69594 19.3152 8.99396 19.0132 9.16429 18.6538C9.35 18.2787 9.44429 17.8263 9.44429 17.2987C9.44429 16.7738 9.35143 16.3263 9.16429 15.955C8.99597 15.5996 8.7008 15.3015 8.32286 15.105C7.94571 14.91 7.46714 14.8125 6.88714 14.8125H4.80286ZM5.93286 15.6187H6.73714C7.09143 15.6187 7.38 15.6813 7.60714 15.8088C7.84291 15.9437 8.02079 16.1433 8.11286 16.3762C8.22571 16.6275 8.28143 16.9412 8.28143 17.3175C8.28586 17.5668 8.2532 17.8156 8.18429 18.0575C8.13339 18.2483 8.03807 18.4279 7.90429 18.585C7.77999 18.7252 7.61531 18.8339 7.42714 18.9C7.20666 18.9722 6.97249 19.007 6.73714 19.0025H5.93286V15.6187ZM11.28 17.8225V19.8113H10.1514V14.8125H13.7914V15.6287H11.28V17.025H13.5743V17.8225H11.28Z" fill="white"/>
</svg>
