<svg width="26" height="26" viewBox="0 0 26 26" fill="none" xmlns="http://www.w3.org/2000/svg">
<path d="M17.9462 2.22709H7.251C5.87849 2.22709 4.73904 3.34064 4.73904 4.71315V21.8566C4.73904 23.2291 5.85259 24.3426 7.251 24.3426H17.9462C19.3187 24.3426 20.4582 23.2291 20.4582 21.8566V4.71315C20.4582 3.34064 19.3446 2.22709 17.9462 2.22709ZM19.6813 21.8566C19.6813 22.8147 18.9044 23.5657 17.9462 23.5657H7.251C6.29283 23.5657 5.51594 22.7888 5.51594 21.8566V4.71315C5.51594 3.75498 6.29283 3.00399 7.251 3.00399H17.9462C18.9044 3.00399 19.6813 3.78088 19.6813 4.71315V21.8566Z" fill="#FCFDFE"/>
<path d="M15.7709 4.68725H9.3745C9.16733 4.68725 8.98605 4.86853 8.98605 5.0757C8.98605 5.28287 9.16733 5.46414 9.3745 5.46414H15.7709C15.9781 5.46414 16.1594 5.28287 16.1594 5.0757C16.1594 4.86853 15.9781 4.68725 15.7709 4.68725Z" fill="#FCFDFE"/>
<path d="M12.5857 19.5259C11.8606 19.5259 11.2908 20.1215 11.2908 20.8207C11.2908 21.1574 11.4203 21.494 11.6793 21.7271C11.9123 21.9602 12.249 22.0896 12.5857 22.0896C13.3108 22.0896 13.8805 21.494 13.8805 20.7948C13.8805 20.0956 13.3108 19.5259 12.5857 19.5259ZM12.6116 21.3386C12.4821 21.3386 12.3526 21.2869 12.249 21.1833C12.1454 21.0797 12.0936 20.9502 12.0936 20.8207C12.0936 20.5359 12.3267 20.3028 12.6116 20.3028C12.8964 20.3028 13.1295 20.5359 13.1295 20.8207C13.1295 21.1056 12.8964 21.3386 12.6116 21.3386Z" fill="#FCFDFE"/>
</svg>
