<svg width="30" height="30" viewBox="0 0 30 30" fill="none" xmlns="http://www.w3.org/2000/svg">
<path d="M29.1372 29.9998C28.7386 29.9998 28.3805 29.6938 28.2993 29.2488C27.6747 25.914 25.3033 23.3162 22.259 22.6319C17.44 21.55 12.5524 21.55 7.73591 22.6319C4.68911 23.3162 2.32024 25.914 1.69565 29.2488C1.6017 29.7578 1.14466 30.086 0.685096 29.9803C0.220458 29.8774 -0.0766063 29.3795 0.0173368 28.8733C0.779038 24.8014 3.67605 21.6279 7.39315 20.7935C12.4407 19.6587 17.5593 19.6587 22.6069 20.7935C26.324 21.6279 29.221 24.8014 29.9827 28.8733C30.0766 29.3823 29.7795 29.8774 29.3149 29.9803C29.2565 29.9942 29.1981 29.9998 29.1423 29.9998H29.1372Z" fill="#333333" fill-opacity="0.53"/>
<path d="M14.9974 17.3501C10.6304 17.3501 7.07831 13.459 7.07831 8.67504C7.07831 3.89111 10.6304 0 14.9974 0C19.3645 0 22.9166 3.89111 22.9166 8.67504C22.9166 13.459 19.3645 17.3501 14.9974 17.3501ZM14.9974 1.87741C11.5749 1.87741 8.79214 4.92578 8.79214 8.67504C8.79214 12.4243 11.5749 15.4727 14.9974 15.4727C18.42 15.4727 21.2028 12.4243 21.2028 8.67504C21.2028 4.92578 18.42 1.87741 14.9974 1.87741Z" fill="#333333" fill-opacity="0.53"/>
</svg>
